<mxfile host="Electron" modified="2024-01-12T17:03:18.674Z" agent="Mozilla/5.0 (Windows NT 10.0; Win64; x64) AppleWebKit/537.36 (KHTML, like Gecko) draw.io/22.0.3 Chrome/114.0.5735.289 Electron/25.8.4 Safari/537.36" etag="uMAyX31ZsLy8vmyVcfae" version="22.0.3" type="device">
  <diagram name="Страница — 1" id="4roAlqgqhJLd52WK8bho">
    <mxGraphModel dx="1395" dy="703" grid="1" gridSize="10" guides="1" tooltips="1" connect="1" arrows="1" fold="1" page="1" pageScale="1" pageWidth="1169" pageHeight="827" math="0" shadow="0">
      <root>
        <mxCell id="0" />
        <mxCell id="1" parent="0" />
        <mxCell id="AlefTDXCC8IeZaHfD70f-44" value="" style="rounded=0;whiteSpace=wrap;html=1;" vertex="1" parent="1">
          <mxGeometry x="640" y="140" width="640" height="240" as="geometry" />
        </mxCell>
        <mxCell id="AlefTDXCC8IeZaHfD70f-77" value="" style="endArrow=none;dashed=1;html=1;dashPattern=1 3;strokeWidth=2;rounded=0;entryX=0.25;entryY=0;entryDx=0;entryDy=0;" edge="1" parent="1" target="AlefTDXCC8IeZaHfD70f-44">
          <mxGeometry width="50" height="50" relative="1" as="geometry">
            <mxPoint x="800" y="380" as="sourcePoint" />
            <mxPoint x="820" y="430" as="targetPoint" />
          </mxGeometry>
        </mxCell>
        <mxCell id="AlefTDXCC8IeZaHfD70f-78" value="" style="endArrow=none;dashed=1;html=1;dashPattern=1 3;strokeWidth=2;rounded=0;entryX=0.25;entryY=0;entryDx=0;entryDy=0;" edge="1" parent="1">
          <mxGeometry width="50" height="50" relative="1" as="geometry">
            <mxPoint x="960" y="380" as="sourcePoint" />
            <mxPoint x="960" y="140" as="targetPoint" />
          </mxGeometry>
        </mxCell>
        <mxCell id="AlefTDXCC8IeZaHfD70f-79" value="" style="endArrow=none;dashed=1;html=1;dashPattern=1 3;strokeWidth=2;rounded=0;entryX=0.25;entryY=0;entryDx=0;entryDy=0;exitX=0.75;exitY=1;exitDx=0;exitDy=0;" edge="1" parent="1" source="AlefTDXCC8IeZaHfD70f-44">
          <mxGeometry width="50" height="50" relative="1" as="geometry">
            <mxPoint x="1119" y="380" as="sourcePoint" />
            <mxPoint x="1119.31" y="140" as="targetPoint" />
          </mxGeometry>
        </mxCell>
        <mxCell id="AlefTDXCC8IeZaHfD70f-1" value="ИД" style="rounded=0;whiteSpace=wrap;html=1;" vertex="1" parent="1">
          <mxGeometry x="80" y="80" width="40" height="60" as="geometry" />
        </mxCell>
        <mxCell id="AlefTDXCC8IeZaHfD70f-2" value="Назва задачі" style="rounded=0;whiteSpace=wrap;html=1;" vertex="1" parent="1">
          <mxGeometry x="120" y="80" width="160" height="60" as="geometry" />
        </mxCell>
        <mxCell id="AlefTDXCC8IeZaHfD70f-3" value="Початок" style="rounded=0;whiteSpace=wrap;html=1;" vertex="1" parent="1">
          <mxGeometry x="280" y="80" width="120" height="60" as="geometry" />
        </mxCell>
        <mxCell id="AlefTDXCC8IeZaHfD70f-4" value="Кінець" style="rounded=0;whiteSpace=wrap;html=1;" vertex="1" parent="1">
          <mxGeometry x="400" y="80" width="120" height="60" as="geometry" />
        </mxCell>
        <mxCell id="AlefTDXCC8IeZaHfD70f-5" value="жовтень 2023" style="rounded=0;whiteSpace=wrap;html=1;" vertex="1" parent="1">
          <mxGeometry x="640" y="80" width="160" height="30" as="geometry" />
        </mxCell>
        <mxCell id="AlefTDXCC8IeZaHfD70f-6" value="листопад 2023" style="rounded=0;whiteSpace=wrap;html=1;" vertex="1" parent="1">
          <mxGeometry x="800" y="80" width="160" height="30" as="geometry" />
        </mxCell>
        <mxCell id="AlefTDXCC8IeZaHfD70f-7" value="грудень 2023" style="rounded=0;whiteSpace=wrap;html=1;" vertex="1" parent="1">
          <mxGeometry x="960" y="80" width="160" height="30" as="geometry" />
        </mxCell>
        <mxCell id="AlefTDXCC8IeZaHfD70f-8" value="січень 2024" style="rounded=0;whiteSpace=wrap;html=1;" vertex="1" parent="1">
          <mxGeometry x="1120" y="80" width="160" height="30" as="geometry" />
        </mxCell>
        <mxCell id="AlefTDXCC8IeZaHfD70f-9" value="Формування вимог" style="rounded=0;whiteSpace=wrap;html=1;" vertex="1" parent="1">
          <mxGeometry x="120" y="140" width="160" height="40" as="geometry" />
        </mxCell>
        <mxCell id="AlefTDXCC8IeZaHfD70f-10" value="Проектування" style="rounded=0;whiteSpace=wrap;html=1;" vertex="1" parent="1">
          <mxGeometry x="120" y="180" width="160" height="40" as="geometry" />
        </mxCell>
        <mxCell id="AlefTDXCC8IeZaHfD70f-11" value="Реалізація" style="rounded=0;whiteSpace=wrap;html=1;" vertex="1" parent="1">
          <mxGeometry x="120" y="220" width="160" height="40" as="geometry" />
        </mxCell>
        <mxCell id="AlefTDXCC8IeZaHfD70f-12" value="Тестування" style="rounded=0;whiteSpace=wrap;html=1;" vertex="1" parent="1">
          <mxGeometry x="120" y="260" width="160" height="40" as="geometry" />
        </mxCell>
        <mxCell id="AlefTDXCC8IeZaHfD70f-13" value="Впровадження" style="rounded=0;whiteSpace=wrap;html=1;" vertex="1" parent="1">
          <mxGeometry x="120" y="300" width="160" height="40" as="geometry" />
        </mxCell>
        <mxCell id="AlefTDXCC8IeZaHfD70f-14" value="Експлуатація та супровід" style="rounded=0;whiteSpace=wrap;html=1;" vertex="1" parent="1">
          <mxGeometry x="120" y="340" width="160" height="40" as="geometry" />
        </mxCell>
        <mxCell id="AlefTDXCC8IeZaHfD70f-15" value="06.10.2023" style="rounded=0;whiteSpace=wrap;html=1;" vertex="1" parent="1">
          <mxGeometry x="280" y="140" width="120" height="40" as="geometry" />
        </mxCell>
        <mxCell id="AlefTDXCC8IeZaHfD70f-16" value="21.10.2023" style="rounded=0;whiteSpace=wrap;html=1;" vertex="1" parent="1">
          <mxGeometry x="280" y="180" width="120" height="40" as="geometry" />
        </mxCell>
        <mxCell id="AlefTDXCC8IeZaHfD70f-17" value="12.11.2023" style="rounded=0;whiteSpace=wrap;html=1;" vertex="1" parent="1">
          <mxGeometry x="280" y="220" width="120" height="40" as="geometry" />
        </mxCell>
        <mxCell id="AlefTDXCC8IeZaHfD70f-18" value="16.12.2023" style="rounded=0;whiteSpace=wrap;html=1;" vertex="1" parent="1">
          <mxGeometry x="280" y="260" width="120" height="40" as="geometry" />
        </mxCell>
        <mxCell id="AlefTDXCC8IeZaHfD70f-19" value="22.12.2023" style="rounded=0;whiteSpace=wrap;html=1;" vertex="1" parent="1">
          <mxGeometry x="280" y="300" width="120" height="40" as="geometry" />
        </mxCell>
        <mxCell id="AlefTDXCC8IeZaHfD70f-20" value="26.12.2023" style="rounded=0;whiteSpace=wrap;html=1;" vertex="1" parent="1">
          <mxGeometry x="280" y="340" width="120" height="40" as="geometry" />
        </mxCell>
        <mxCell id="AlefTDXCC8IeZaHfD70f-21" value="20.10.2023" style="rounded=0;whiteSpace=wrap;html=1;" vertex="1" parent="1">
          <mxGeometry x="400" y="140" width="120" height="40" as="geometry" />
        </mxCell>
        <mxCell id="AlefTDXCC8IeZaHfD70f-22" value="11.11.2023" style="rounded=0;whiteSpace=wrap;html=1;" vertex="1" parent="1">
          <mxGeometry x="400" y="180" width="120" height="40" as="geometry" />
        </mxCell>
        <mxCell id="AlefTDXCC8IeZaHfD70f-23" value="15.12.2023" style="rounded=0;whiteSpace=wrap;html=1;" vertex="1" parent="1">
          <mxGeometry x="400" y="220" width="120" height="40" as="geometry" />
        </mxCell>
        <mxCell id="AlefTDXCC8IeZaHfD70f-24" value="21.12.2023" style="rounded=0;whiteSpace=wrap;html=1;" vertex="1" parent="1">
          <mxGeometry x="400" y="260" width="120" height="40" as="geometry" />
        </mxCell>
        <mxCell id="AlefTDXCC8IeZaHfD70f-25" value="25.12.2023" style="rounded=0;whiteSpace=wrap;html=1;" vertex="1" parent="1">
          <mxGeometry x="400" y="300" width="120" height="40" as="geometry" />
        </mxCell>
        <mxCell id="AlefTDXCC8IeZaHfD70f-26" value="02.01.2024" style="rounded=0;whiteSpace=wrap;html=1;" vertex="1" parent="1">
          <mxGeometry x="400" y="340" width="120" height="40" as="geometry" />
        </mxCell>
        <mxCell id="AlefTDXCC8IeZaHfD70f-27" value="1" style="rounded=0;whiteSpace=wrap;html=1;" vertex="1" parent="1">
          <mxGeometry x="80" y="140" width="40" height="40" as="geometry" />
        </mxCell>
        <mxCell id="AlefTDXCC8IeZaHfD70f-28" value="2" style="rounded=0;whiteSpace=wrap;html=1;" vertex="1" parent="1">
          <mxGeometry x="80" y="180" width="40" height="40" as="geometry" />
        </mxCell>
        <mxCell id="AlefTDXCC8IeZaHfD70f-29" value="3" style="rounded=0;whiteSpace=wrap;html=1;" vertex="1" parent="1">
          <mxGeometry x="80" y="220" width="40" height="40" as="geometry" />
        </mxCell>
        <mxCell id="AlefTDXCC8IeZaHfD70f-30" value="4" style="rounded=0;whiteSpace=wrap;html=1;" vertex="1" parent="1">
          <mxGeometry x="80" y="260" width="40" height="40" as="geometry" />
        </mxCell>
        <mxCell id="AlefTDXCC8IeZaHfD70f-31" value="5" style="rounded=0;whiteSpace=wrap;html=1;" vertex="1" parent="1">
          <mxGeometry x="80" y="300" width="40" height="40" as="geometry" />
        </mxCell>
        <mxCell id="AlefTDXCC8IeZaHfD70f-32" value="6" style="rounded=0;whiteSpace=wrap;html=1;" vertex="1" parent="1">
          <mxGeometry x="80" y="340" width="40" height="40" as="geometry" />
        </mxCell>
        <mxCell id="AlefTDXCC8IeZaHfD70f-33" value="1.10" style="rounded=0;whiteSpace=wrap;html=1;" vertex="1" parent="1">
          <mxGeometry x="640" y="110" width="40" height="30" as="geometry" />
        </mxCell>
        <mxCell id="AlefTDXCC8IeZaHfD70f-34" value="8.10" style="rounded=0;whiteSpace=wrap;html=1;" vertex="1" parent="1">
          <mxGeometry x="680" y="110" width="40" height="30" as="geometry" />
        </mxCell>
        <mxCell id="AlefTDXCC8IeZaHfD70f-35" value="15.10" style="rounded=0;whiteSpace=wrap;html=1;" vertex="1" parent="1">
          <mxGeometry x="720" y="110" width="40" height="30" as="geometry" />
        </mxCell>
        <mxCell id="AlefTDXCC8IeZaHfD70f-36" value="22.10" style="rounded=0;whiteSpace=wrap;html=1;" vertex="1" parent="1">
          <mxGeometry x="760" y="110" width="40" height="30" as="geometry" />
        </mxCell>
        <mxCell id="AlefTDXCC8IeZaHfD70f-37" value="Тривалість" style="rounded=0;whiteSpace=wrap;html=1;" vertex="1" parent="1">
          <mxGeometry x="520" y="80" width="120" height="60" as="geometry" />
        </mxCell>
        <mxCell id="AlefTDXCC8IeZaHfD70f-38" value="11д" style="rounded=0;whiteSpace=wrap;html=1;" vertex="1" parent="1">
          <mxGeometry x="520" y="140" width="120" height="40" as="geometry" />
        </mxCell>
        <mxCell id="AlefTDXCC8IeZaHfD70f-39" value="29д" style="rounded=0;whiteSpace=wrap;html=1;" vertex="1" parent="1">
          <mxGeometry x="520" y="180" width="120" height="40" as="geometry" />
        </mxCell>
        <mxCell id="AlefTDXCC8IeZaHfD70f-40" value="34д" style="rounded=0;whiteSpace=wrap;html=1;" vertex="1" parent="1">
          <mxGeometry x="520" y="220" width="120" height="40" as="geometry" />
        </mxCell>
        <mxCell id="AlefTDXCC8IeZaHfD70f-41" value="5д" style="rounded=0;whiteSpace=wrap;html=1;" vertex="1" parent="1">
          <mxGeometry x="520" y="260" width="120" height="40" as="geometry" />
        </mxCell>
        <mxCell id="AlefTDXCC8IeZaHfD70f-42" value="3д" style="rounded=0;whiteSpace=wrap;html=1;" vertex="1" parent="1">
          <mxGeometry x="520" y="300" width="120" height="40" as="geometry" />
        </mxCell>
        <mxCell id="AlefTDXCC8IeZaHfD70f-43" value="7д" style="rounded=0;whiteSpace=wrap;html=1;" vertex="1" parent="1">
          <mxGeometry x="520" y="340" width="120" height="40" as="geometry" />
        </mxCell>
        <mxCell id="AlefTDXCC8IeZaHfD70f-61" style="edgeStyle=orthogonalEdgeStyle;rounded=0;orthogonalLoop=1;jettySize=auto;html=1;exitX=1;exitY=0.5;exitDx=0;exitDy=0;entryX=0;entryY=0.5;entryDx=0;entryDy=0;" edge="1" parent="1" source="AlefTDXCC8IeZaHfD70f-50" target="AlefTDXCC8IeZaHfD70f-51">
          <mxGeometry relative="1" as="geometry">
            <Array as="points">
              <mxPoint x="770" y="160" />
              <mxPoint x="770" y="180" />
              <mxPoint x="730" y="180" />
              <mxPoint x="730" y="200" />
            </Array>
          </mxGeometry>
        </mxCell>
        <mxCell id="AlefTDXCC8IeZaHfD70f-50" value="" style="rounded=0;whiteSpace=wrap;html=1;" vertex="1" parent="1">
          <mxGeometry x="670" y="150" width="80" height="20" as="geometry" />
        </mxCell>
        <mxCell id="AlefTDXCC8IeZaHfD70f-63" style="edgeStyle=orthogonalEdgeStyle;rounded=0;orthogonalLoop=1;jettySize=auto;html=1;exitX=1;exitY=0.5;exitDx=0;exitDy=0;entryX=0;entryY=0.5;entryDx=0;entryDy=0;" edge="1" parent="1" source="AlefTDXCC8IeZaHfD70f-51" target="AlefTDXCC8IeZaHfD70f-62">
          <mxGeometry relative="1" as="geometry">
            <Array as="points">
              <mxPoint x="890" y="200" />
              <mxPoint x="890" y="220" />
              <mxPoint x="850" y="220" />
              <mxPoint x="850" y="240" />
            </Array>
          </mxGeometry>
        </mxCell>
        <mxCell id="AlefTDXCC8IeZaHfD70f-51" value="" style="rounded=0;whiteSpace=wrap;html=1;" vertex="1" parent="1">
          <mxGeometry x="750" y="190" width="120" height="20" as="geometry" />
        </mxCell>
        <mxCell id="AlefTDXCC8IeZaHfD70f-53" value="1.11" style="rounded=0;whiteSpace=wrap;html=1;" vertex="1" parent="1">
          <mxGeometry x="800" y="110" width="40" height="30" as="geometry" />
        </mxCell>
        <mxCell id="AlefTDXCC8IeZaHfD70f-54" value="8.11" style="rounded=0;whiteSpace=wrap;html=1;" vertex="1" parent="1">
          <mxGeometry x="840" y="110" width="40" height="30" as="geometry" />
        </mxCell>
        <mxCell id="AlefTDXCC8IeZaHfD70f-55" value="15.11" style="rounded=0;whiteSpace=wrap;html=1;" vertex="1" parent="1">
          <mxGeometry x="880" y="110" width="40" height="30" as="geometry" />
        </mxCell>
        <mxCell id="AlefTDXCC8IeZaHfD70f-56" value="22.11" style="rounded=0;whiteSpace=wrap;html=1;" vertex="1" parent="1">
          <mxGeometry x="920" y="110" width="40" height="30" as="geometry" />
        </mxCell>
        <mxCell id="AlefTDXCC8IeZaHfD70f-57" value="1.12" style="rounded=0;whiteSpace=wrap;html=1;" vertex="1" parent="1">
          <mxGeometry x="960" y="110" width="40" height="30" as="geometry" />
        </mxCell>
        <mxCell id="AlefTDXCC8IeZaHfD70f-58" value="8.12" style="rounded=0;whiteSpace=wrap;html=1;" vertex="1" parent="1">
          <mxGeometry x="1000" y="110" width="40" height="30" as="geometry" />
        </mxCell>
        <mxCell id="AlefTDXCC8IeZaHfD70f-59" value="15.12" style="rounded=0;whiteSpace=wrap;html=1;" vertex="1" parent="1">
          <mxGeometry x="1040" y="110" width="40" height="30" as="geometry" />
        </mxCell>
        <mxCell id="AlefTDXCC8IeZaHfD70f-60" value="22.12" style="rounded=0;whiteSpace=wrap;html=1;" vertex="1" parent="1">
          <mxGeometry x="1080" y="110" width="40" height="30" as="geometry" />
        </mxCell>
        <mxCell id="AlefTDXCC8IeZaHfD70f-65" style="edgeStyle=orthogonalEdgeStyle;rounded=0;orthogonalLoop=1;jettySize=auto;html=1;exitX=1;exitY=0.5;exitDx=0;exitDy=0;entryX=0;entryY=0.5;entryDx=0;entryDy=0;" edge="1" parent="1" source="AlefTDXCC8IeZaHfD70f-62" target="AlefTDXCC8IeZaHfD70f-64">
          <mxGeometry relative="1" as="geometry">
            <Array as="points">
              <mxPoint x="1060" y="240" />
              <mxPoint x="1060" y="260" />
              <mxPoint x="1029" y="260" />
              <mxPoint x="1029" y="280" />
            </Array>
          </mxGeometry>
        </mxCell>
        <mxCell id="AlefTDXCC8IeZaHfD70f-62" value="" style="rounded=0;whiteSpace=wrap;html=1;" vertex="1" parent="1">
          <mxGeometry x="870" y="230" width="170" height="20" as="geometry" />
        </mxCell>
        <mxCell id="AlefTDXCC8IeZaHfD70f-67" style="edgeStyle=orthogonalEdgeStyle;rounded=0;orthogonalLoop=1;jettySize=auto;html=1;exitX=1;exitY=0.5;exitDx=0;exitDy=0;entryX=0;entryY=0.5;entryDx=0;entryDy=0;" edge="1" parent="1" source="AlefTDXCC8IeZaHfD70f-64" target="AlefTDXCC8IeZaHfD70f-66">
          <mxGeometry relative="1" as="geometry">
            <Array as="points">
              <mxPoint x="1110" y="280" />
              <mxPoint x="1110" y="300" />
              <mxPoint x="1070" y="300" />
              <mxPoint x="1070" y="320" />
            </Array>
          </mxGeometry>
        </mxCell>
        <mxCell id="AlefTDXCC8IeZaHfD70f-64" value="" style="rounded=0;whiteSpace=wrap;html=1;" vertex="1" parent="1">
          <mxGeometry x="1049" y="270" width="41" height="20" as="geometry" />
        </mxCell>
        <mxCell id="AlefTDXCC8IeZaHfD70f-73" style="edgeStyle=orthogonalEdgeStyle;rounded=0;orthogonalLoop=1;jettySize=auto;html=1;exitX=1;exitY=0.5;exitDx=0;exitDy=0;entryX=0;entryY=0.5;entryDx=0;entryDy=0;" edge="1" parent="1" source="AlefTDXCC8IeZaHfD70f-66" target="AlefTDXCC8IeZaHfD70f-72">
          <mxGeometry relative="1" as="geometry">
            <Array as="points">
              <mxPoint x="1110" y="320" />
              <mxPoint x="1110" y="340" />
              <mxPoint x="1095" y="340" />
              <mxPoint x="1095" y="360" />
            </Array>
          </mxGeometry>
        </mxCell>
        <mxCell id="AlefTDXCC8IeZaHfD70f-66" value="" style="rounded=0;whiteSpace=wrap;html=1;" vertex="1" parent="1">
          <mxGeometry x="1090" y="310" width="10" height="20" as="geometry" />
        </mxCell>
        <mxCell id="AlefTDXCC8IeZaHfD70f-68" value="1.12" style="rounded=0;whiteSpace=wrap;html=1;" vertex="1" parent="1">
          <mxGeometry x="1120" y="110" width="40" height="30" as="geometry" />
        </mxCell>
        <mxCell id="AlefTDXCC8IeZaHfD70f-69" value="8.12" style="rounded=0;whiteSpace=wrap;html=1;" vertex="1" parent="1">
          <mxGeometry x="1160" y="110" width="40" height="30" as="geometry" />
        </mxCell>
        <mxCell id="AlefTDXCC8IeZaHfD70f-70" value="15.12" style="rounded=0;whiteSpace=wrap;html=1;" vertex="1" parent="1">
          <mxGeometry x="1200" y="110" width="40" height="30" as="geometry" />
        </mxCell>
        <mxCell id="AlefTDXCC8IeZaHfD70f-71" value="22.12" style="rounded=0;whiteSpace=wrap;html=1;" vertex="1" parent="1">
          <mxGeometry x="1240" y="110" width="40" height="30" as="geometry" />
        </mxCell>
        <mxCell id="AlefTDXCC8IeZaHfD70f-80" value="" style="endArrow=none;dashed=1;html=1;dashPattern=1 3;strokeWidth=2;rounded=0;exitX=1;exitY=0;exitDx=0;exitDy=0;" edge="1" parent="1" source="AlefTDXCC8IeZaHfD70f-39">
          <mxGeometry width="50" height="50" relative="1" as="geometry">
            <mxPoint x="810" y="390" as="sourcePoint" />
            <mxPoint x="1280" y="180" as="targetPoint" />
          </mxGeometry>
        </mxCell>
        <mxCell id="AlefTDXCC8IeZaHfD70f-81" value="" style="endArrow=none;dashed=1;html=1;dashPattern=1 3;strokeWidth=2;rounded=0;exitX=1;exitY=0;exitDx=0;exitDy=0;" edge="1" parent="1">
          <mxGeometry width="50" height="50" relative="1" as="geometry">
            <mxPoint x="640" y="219.31" as="sourcePoint" />
            <mxPoint x="1280" y="220" as="targetPoint" />
          </mxGeometry>
        </mxCell>
        <mxCell id="AlefTDXCC8IeZaHfD70f-82" value="" style="endArrow=none;dashed=1;html=1;dashPattern=1 3;strokeWidth=2;rounded=0;exitX=1;exitY=0;exitDx=0;exitDy=0;" edge="1" parent="1">
          <mxGeometry width="50" height="50" relative="1" as="geometry">
            <mxPoint x="640" y="259.31" as="sourcePoint" />
            <mxPoint x="1280" y="259" as="targetPoint" />
          </mxGeometry>
        </mxCell>
        <mxCell id="AlefTDXCC8IeZaHfD70f-83" value="" style="endArrow=none;dashed=1;html=1;dashPattern=1 3;strokeWidth=2;rounded=0;exitX=1;exitY=0;exitDx=0;exitDy=0;" edge="1" parent="1">
          <mxGeometry width="50" height="50" relative="1" as="geometry">
            <mxPoint x="640" y="300" as="sourcePoint" />
            <mxPoint x="1280" y="300" as="targetPoint" />
          </mxGeometry>
        </mxCell>
        <mxCell id="AlefTDXCC8IeZaHfD70f-84" value="" style="endArrow=none;dashed=1;html=1;dashPattern=1 3;strokeWidth=2;rounded=0;exitX=1;exitY=0;exitDx=0;exitDy=0;" edge="1" parent="1">
          <mxGeometry width="50" height="50" relative="1" as="geometry">
            <mxPoint x="640" y="340" as="sourcePoint" />
            <mxPoint x="1280" y="340" as="targetPoint" />
          </mxGeometry>
        </mxCell>
        <mxCell id="AlefTDXCC8IeZaHfD70f-72" value="" style="rounded=0;whiteSpace=wrap;html=1;" vertex="1" parent="1">
          <mxGeometry x="1110" y="350" width="20" height="20" as="geometry" />
        </mxCell>
      </root>
    </mxGraphModel>
  </diagram>
</mxfile>
